<?xml version="1.0" encoding="utf-8"?>
<!-- Generator: Adobe Illustrator 25.3.1, SVG Export Plug-In . SVG Version: 6.00 Build 0)  -->
<svg version="1.1" id="Layer_1" xmlns="http://www.w3.org/2000/svg" xmlns:xlink="http://www.w3.org/1999/xlink" x="0px" y="0px"
	 viewBox="0 0 250 191" style="enable-background:new 0 0 250 191;" xml:space="preserve">
<style type="text/css">
	.st0{fill:#333184;}
</style>
<path class="st0" d="M228.2,67c1.6-4.8,2.1-9.9,1.5-14.9c-0.9-6.4-6.2-7.5-11.8-8.6c-7.9-1.6-15-6.9-23.3-5.4
	c-0.2,0-0.4,0.1-0.5,0.3c-0.1,0.1-0.2,0.3-0.2,0.5h-0.4c-4.1-4.2-13.2-4.5-18.5-6c-10-3-20-5.1-29.8-7.5c-9-2.2-18.4-5.1-27.6-6.5
	c-1.7-0.2-3.5-0.1-5.2,0.4c-4.7-3.4-9.8-5.8-15.4-3.5c-0.8,0.1-1.5,0.4-2.2,0.9c-1.3,0.9-2.3,2.2-2.8,3.6c-0.6,1.5-0.7,3-0.5,4.6
	c-4.2,2.1-7.6,5.6-9.5,9.9c-0.1,0.2-0.1,0.4-0.1,0.6c0,0.2,0,0.4,0.1,0.6c-3,1.3-4.5,7-5.4,9.5c-3.2,9-4.9,18.5-8.2,27.4
	c-0.5,1.5,1.7,2,2.3,0.6c2.6-6.8,4.7-13.8,6.3-20.9c1.3-5,2.6-12,6.9-15.3c0.1-0.1,0.2-0.2,0.2-0.3c4.2,1.1,8.6,1.6,13,1.5
	c7.3,0.2,14.5,1.3,21.9,1.2c6.2,0.2,12.4,0.1,18.6-0.5c4-0.6-0.4,13.4-1,15.8c-1.1,4.9-2.7,9.7-4.9,14.2c-3.7,7.7-8.9,8.4-16.8,8.4
	c-2.7,0.2-5.4,0.7-8,1.6c-4.9,0.9-9.9,1.4-14.9,1.4C83.7,81,76,77.2,68.3,74.4c-0.3-0.1-0.6-0.1-0.8,0c-0.3,0.1-0.5,0.3-0.6,0.5
	c-2,3.3-3.1,6.9-3.4,10.7c-0.9,6.1-2.2,12-3.8,17.9c-5.3,0.9-3.5,9.5-1.4,14.1c-1.1,2.4-1.4,5.2-0.8,7.8c-0.5,0.4-1,0.7-1.5,1.2
	l-1.9,1.5c-0.2,0.2-0.3,0.4-0.3,0.6c0,0.2,0,0.5,0.2,0.7c0.3,0.6,0.7,1,1.2,1.4c0.5,0.3,1.1,0.5,1.8,0.5c-0.8,0.5-1.6,1.1-2.5,1.6
	c-4.1-2.1-7.8-0.2-11.1,2.5c-0.1,0.1-0.2,0.3-0.3,0.5c-0.1,0.2-0.1,0.4,0,0.6c0,0.2,0.1,0.4,0.3,0.5c0.1,0.1,0.3,0.2,0.5,0.3
	c1,0.3,2,0.4,3,0.5c-1,0.6-1.9,1.2-3,1.8c-2.2-0.9-4.5-1.1-6.8-0.6c-2.3,0.5-4.4,1.7-5.9,3.4c-0.1,0.1-0.2,0.3-0.3,0.5
	c-0.1,0.2,0,0.4,0,0.6c0.1,0.2,0.2,0.4,0.3,0.5c0.1,0.1,0.3,0.2,0.5,0.3c1.2,0.4,2.4,0.7,3.6,0.8c-5.1,3.5-10,7.5-14.4,12
	c-0.1,0.2-0.3,0.3-0.3,0.6c-0.1,0.2-0.1,0.4,0,0.6c-0.1,0.1-0.3,0.3-0.3,0.4c-0.1,0.2-0.1,0.4-0.1,0.5c0.4,2.3,0.9,6.5,3.4,7.4
	c3.4,0.9,6.9,1.1,10.4,0.6c0.3,0,0.5-0.1,0.7-0.3c0.2-0.2,0.3-0.5,0.3-0.7c1.9,0.8,6.6-4.8,7.2-5.5c1.9-2.2,3.7-4.4,5.4-6.8
	c1.2-1.3,2.1-2.9,2.7-4.6c8.1,1.1,16.1,2.7,24,5c-3.7,4.2-7,8.7-9.9,13.4c-0.1,0.2-0.1,0.5,0,0.8c-0.2,0.1-0.3,0.3-0.3,0.4
	c-0.1,0.2-0.1,0.4,0,0.6c0.3,1.5,1.1,2.9,2.2,3.9c1.6,0.8,3.4,1.1,5.2,0.8c0.8,0.1,1.5,0,2.2-0.3c0.7-0.2,1.4-0.6,1.9-1.1
	c0.1-0.1,0.2-0.2,0.2-0.3c0.1,0.1,0.3,0.1,0.5,0c0.2,0,0.3-0.1,0.4-0.2c3.3-3.5,5.9-7.5,7.8-12c0.5-0.9,1-1.7,1.5-2.6
	c1.9,0.5,3.8,0.7,5.7,0.5c1.4-0.3,2.7-0.9,3.8-1.8c1.1-0.9,1.8-2.2,2.2-3.5c0.1-0.1,0.1-0.3,0.1-0.5c0-0.2,0-0.3-0.1-0.5
	c-0.1-0.2-0.2-0.3-0.3-0.4c-0.1-0.1-0.3-0.2-0.4-0.2c-1.8-0.7-3.7-1-5.6-1l1.3-1.4c1.5,0.8,3.3,1.1,5,0.7c1.3-0.5,3.3-2.3,3.3-3.8
	c0-0.2-0.1-0.4-0.2-0.6c-0.1-0.2-0.3-0.3-0.5-0.3c-1.3-0.2-2.6-0.4-3.9-0.5c1.3-1.1,2.6-2.2,3.9-3.2c2.1,0.6,4.3,0.6,6.4,0
	c2.1-1.1,3.7-2.9,4.6-5.1c0.1-0.1,0.1-0.3,0.1-0.5c0-0.2,0-0.3-0.1-0.5c-0.1-0.2-0.2-0.3-0.3-0.4c-0.1-0.1-0.3-0.2-0.4-0.2
	c-0.7,0-1.3-0.2-2-0.3c0.1-0.1,0.2-0.2,0.3-0.4c0-0.2,0-0.3,0-0.5c9.9-1.1,19.6-3.8,28.8-7.8c16.4-7.3,31.2-18.6,46.6-27.8
	c1.9-1.2,16-8.1,16.2-12.9c0.7-0.4,1.3-0.8,1.8-1.3c4.7-1,9.1-2.9,12.9-5.8c4.8-3,9.7-4.9,13.4-9.3c0.1-0.1,0.2-0.3,0.3-0.4
	c0.1-0.2,0.1-0.3,0.1-0.5c0-0.2-0.1-0.4-0.1-0.5C228.5,67.3,228.4,67.1,228.2,67z M109.8,20.5c-1.5,0.8-2.9,2-3.9,3.4
	c-0.6,0.9-1.2,1.9-1.8,2.8c-0.1-3.4-1.3-6.6-3.3-9.4C104.1,17.6,107.2,18.6,109.8,20.5z M101.1,22.5c0.5,1.5,0.8,3.1,0.8,4.8
	c0,0.2,0,0.3,0.1,0.4c0.1,0.1,0.1,0.3,0.2,0.4c0.1,0.1,0.2,0.2,0.4,0.2c0.1,0.1,0.3,0.1,0.4,0.1c-0.7,0.6-1.5,0.9-2.3,1.1
	c-0.9,0.2-1.7,0.2-2.6-0.1c-0.8-0.2-1.6-0.6-2.3-1.2c-0.6-0.6-1.1-1.3-1.4-2.1C93.1,21.7,99,17.4,101.1,22.5z M56.3,129.3
	c0.8-0.6,1.6-1.2,2.3-1.9c0.4,0.3,0.8,0.6,1.2,0.8l1.1,0.5l-1.8,1.1c-0.1-0.2-0.2-0.3-0.4-0.3c-0.2-0.1-0.3-0.1-0.5,0
	c-0.3,0.1-0.7,0.1-1,0.1S56.6,129.4,56.3,129.3z M48.8,134.5c1-0.3,2-0.3,3,0l-2.6,1.6c-0.9-0.2-1.9-0.3-2.8-0.5
	C47.1,135.2,47.9,134.8,48.8,134.5z M34,142.9c1.1-0.9,2.5-1.5,3.9-1.6c1-0.1,2,0,3,0.2l-3.7,2.5c-0.1-0.1-0.1-0.2-0.2-0.3
	s-0.2-0.1-0.3-0.1C35.7,143.3,34.9,143.1,34,142.9z M25.5,165.2c-2.4-0.4-3-3.3-3.3-5.5c3.2,1.3,6.5,2,10,2.1
	c0.2,1.2,0.4,2.4,0.5,3.6C30.2,165.6,27.8,165.6,25.5,165.2z M40.5,159.2c-1.4,1.7-2.9,3.2-4.5,4.6c-0.2,0.2-0.7,0.4-1.1,0.7
	c-0.1-1-0.3-2-0.6-3c3.1-1.5,5.8-3.7,7.9-6.3l5.3-5.2C45.5,153.4,43.2,156.5,40.5,159.2L40.5,159.2z M39,154.9c-3,3.1-5.8,5-10.3,4
	c-1.5-0.3-3-0.8-4.4-1.3c11.5-11.1,25.8-17.9,38.6-27.2c0.2-0.1,0.3-0.3,0.4-0.5c1.6,0.7,3.3,1.2,5,1.7c-7.7,3-14.1,9-20.1,14.4
	C45,148.8,42.1,151.8,39,154.9L39,154.9z M91,139.1c-1.1,1-2.3,2-3.5,3h-0.2c-4.5-0.8-9-0.5-13.4-1.7c-3.4-1.4-6.9-2.6-10.6-3.4
	c1.2-0.8,2.4-1.6,3.6-2.3c0.1,0.1,0.3,0.2,0.5,0.2C75.5,135.8,83.1,137.5,91,139.1L91,139.1z M70.3,132.8l0.6-0.3
	c0.1-0.1,0.2-0.1,0.3-0.2c3.2,0.7,6.4,1.2,9.7,1.5c5,0.6,10,0.8,15,0.8c-1,1-2,1.9-3,3c-0.1-0.1-0.3-0.2-0.5-0.2
	C85.8,135.9,77.4,132.3,70.3,132.8L70.3,132.8z M59.6,139.5c0.5-0.4,1.1-0.8,1.7-1.2c0.1,0.1,0.2,0.3,0.3,0.3s0.3,0.1,0.4,0.1
	c4.6,0.3,8.4,3,12.6,4c3.5,0.8,7.1,1.2,10.7,1.1l-1.9,1.6C75.4,143.7,67.6,141.2,59.6,139.5L59.6,139.5z M81.8,146.9l-2.3,2
	c-8.4-2.1-16.9-3.7-25.4-4.9l3.2-2.7h0.3C65.6,142.9,73.5,146.1,81.8,146.9L81.8,146.9z M49.9,147.8l2.5-2.3c4.4,1.1,9,1,13.5,2.1
	c4,1,8,1.9,12,3c-0.8,0.8-1.6,1.6-2.5,2.5c-0.1-0.2-0.4-0.4-0.6-0.4C66.8,150.2,58.3,147.1,49.9,147.8L49.9,147.8z M73.5,171.7
	c-0.7,0.8-2.6,0.6-3.5,0.6c-1,0.2-2.1,0-3-0.5c-0.5-0.6-0.9-1.3-1.1-2c2.6,0.7,5.3,0.6,7.8-0.4C73.8,170.4,74.1,171.2,73.5,171.7
	L73.5,171.7z M75.8,170.5c0-0.8-0.2-1.5-0.5-2.2c2-1.8,3.7-4,4.9-6.5c0.9-1.6,1.9-3.1,3-4.5h0.2C81.3,161.9,78.7,166.3,75.8,170.5
	L75.8,170.5z M94.8,153.3c-0.4,0.9-1.1,1.7-2,2.2c-0.9,0.5-1.9,0.8-2.9,0.7c-0.9,0-1.9-0.2-2.8-0.4c0.7-1.1,1.5-2.1,2.3-3
	C91.1,152.8,93,152.9,94.8,153.3L94.8,153.3z M97.9,147.3c-0.4,0.4-1,0.8-1.6,1c-1,0.2-1.9,0.1-2.8-0.3l1-1c1.1,0.2,2.3,0.3,3.4,0.3
	H97.9z M85.3,152c-2.8,2.6-5.2,5.5-7.1,8.8c-3,5.3-5.3,7.8-11.3,7c4-6.3,8.7-12.1,14-17.3c5.7-5.6,12.5-9.9,17.8-15.9
	c2.4,0,4.8-0.2,7.1-0.4C98.8,139.7,92.1,145.7,85.3,152z M108.3,136.8c-0.6,1.2-1.7,2.2-3,2.8c-1.1,0.4-2.2,0.5-3.4,0.4l4.1-3.4
	C106.7,136.7,107.5,136.8,108.3,136.8z M170.8,103.1c-10.8,6.7-21,14.1-32.5,19.8c-13,6.5-27,8.5-41.5,9c-7.6,0.3-15.2-0.2-22.6-1.7
	c-6.5-1.3-13.7-2.7-14.2-9.9c3.4,4,9,5.6,13.9,6.6c9,1.7,18.1,2,27.2,1c8.6-0.7,17.2-2,25.7-3.7c8.5-2.3,16.6-5.8,24-10.4
	c8.1-4.7,16.1-9.6,24.2-14.3C192.2,89.4,176.2,99.7,170.8,103.1z M197,80.3c-2.2,7.6-13.1,10.8-19.4,14.3c-8.1,4.5-16.1,9.4-24,14.2
	c-7.9,5.1-16.4,9.2-25.3,12.2c-9.9,2.5-20,4-30.1,4.5c-9.3,1-18.8,0.3-27.9-1.9c-2.4-0.4-4.6-1.4-6.5-2.9c-1.9-1.5-3.4-3.4-4.5-5.5
	c-0.5-1.6-2.3-9.3,0.6-9.8c0.1,0.1,0.2,0.1,0.4,0.2l3.2,0.7c-4.6,0.6-5,8.5-0.6,10c2.1,0.7,3.6-1,4.1-2.8c0.3-1.1,0.2-2.3-0.1-3.4
	c-0.3-1.1-1-2.1-1.8-2.9c0-0.2-0.1-0.3-0.2-0.4c9.7,2.1,19.4,3.7,29.3,4.8h0.9c-3.6,3-2.3,10.8,3.3,11.2c6.2,0.4,6.3-7.7,2.7-10.9
	c10.5-0.4,20.9-2.3,30.9-5.6c10.9-3.5,21.4-7.8,31.6-12.9c11.1-5.2,23-9.5,33.9-15.2C197.4,79,197.3,79.7,197,80.3z M64.9,112.4
	c0,0.5-0.3,2.2-1.1,2c-2.2-0.5-2.1-4.6-0.4-6C64.3,109.5,64.8,110.9,64.9,112.4z M97.5,112.4c1.7,1.2,3,1.9,3.7,4.1
	c0.7,2.2,0,3.8-2.2,3.9C94.7,120.8,94.4,114.1,97.5,112.4L97.5,112.4z M198.2,75.3c-0.2,0-0.4,0-0.6,0c-9.7,5.1-20.4,9-30.4,13.6
	c-10.8,5.4-21.9,10.2-33.2,14.3c-11.8,4.3-24.4,6.4-37,6.2c-11.8-0.8-23.5-2.7-35-5.5c0.7-2.6,1.5-5.1,2.1-7.7
	c3.2-0.6,7.9,1.4,11.1,2c4.8,1.1,9.8,1.8,14.7,2c12.6,0.7,25.3-0.5,37.6-3.3c24.5-6.4,48.4-15.1,71.2-26.1
	C198.6,72.4,198.4,73.9,198.2,75.3L198.2,75.3z M199,68.4c-0.2-0.1-0.4-0.1-0.6-0.1c-0.2,0-0.4,0-0.6,0.1
	c-22.8,10.9-46.5,19.5-70.9,25.9c-13,2.8-26.3,3.8-39.5,3c-5.5-0.4-10.9-1.3-16.2-2.6c-2.2-0.6-4.4-0.9-6.6-1
	c0.3-1.3,0.5-2.5,0.7-3.8c0.3-4.2,1.2-8.3,2.8-12.1c0.4-0.9,12.5,3.9,13.8,4.3c5,1.3,10.2,1.6,15.3,1c4.3-0.4,8.6-1.1,12.9-2.1
	c4.9-1.2,10.1,0,15-1.4c4.9-1.4,8.2-7.8,10.1-12.2c2.2-5.5,3.8-11.3,4.9-17.1c0.8-3.5,4.3-10.8-0.2-13.4c-1.5-0.9-6,0.2-7.1,0.3
	c-6.3,0.4-12.7,0.2-19,0c-4.9,0-9.8-0.7-14.7-1c-4.9,0.1-9.8-0.4-14.5-1.5c1.8-3.2,4.4-5.9,7.6-7.8c0.3,1.6,1.1,3,2.2,4.2
	c1.1,1.2,2.5,2,4.1,2.5c1.4,0.1,2.7-0.2,3.9-0.9c1.2-0.7,2.2-1.7,2.8-2.9c2.6-3.5,3.9-6.5,8.5-8c4.7-1.5,12.7,2.1,17.5,3
	c18.5,3.7,36.6,9.2,55,13.2C197.3,40.6,199.8,55.9,199,68.4L199,68.4z M199.7,80.2c3-8.2,2.2-18.6,0.7-26.3
	c-0.9-4.7-2.6-9.2-5.2-13.2c8.6,1.6,8.3,12.1,8.3,19.6C203.5,65.2,206,78.9,199.7,80.2L199.7,80.2z M221.5,69.4
	c-5.5,3-11.2,6-16.5,9.5c0.6-1.3,1-2.7,1.1-4.1c0.1,0,0.3,0,0.4,0c3.6-2.2,7.4-4.1,11.3-5.8c2.9-0.8,5.7-1.9,8.4-3.1
	C225.5,67.7,223.6,68.3,221.5,69.4L221.5,69.4z M227.7,56.1c-0.1,2.4-0.4,4.7-0.8,7.1h-0.3c-3.3,1.8-6.8,3.2-10.3,4.3
	c-3.5,1.4-6.8,3.2-9.9,5.3c0.2-4.5-0.6-9.5-0.6-12.5c0-7.5-0.4-16.5-6.2-20.1c5.2,0.5,10.2,3.3,15.2,4.8c4.6,1.4,9,1.6,11.5,4.5
	c-1.3-0.1-2.6,0-3.9,0.2c-0.2,0.1-0.3,0.1-0.4,0.3s-0.2,0.3-0.2,0.4c0,0.2-0.1,0.3,0,0.5c0,0.2,0.1,0.3,0.2,0.5
	c-0.1,1.3,0,2.6,0.4,3.9c0.3,0.5,0.9,1,1.5,1.2c0.6,0.2,1.3,0.3,1.9,0.1c1.8-0.4,2.1-2.4,2-4.2C227.8,53.6,227.8,54.9,227.7,56.1
	L227.7,56.1z M225,54.8c-0.8,0.5-1.5,0-1.6-0.8c-0.1-0.7-0.2-1.4-0.2-2.2h2.2C225.6,52.8,225.8,54.3,225,54.8L225,54.8z"/>
<path class="st0" d="M165.4,64.5c0.9-6.9,0.9-14,0-20.9c0.1-0.2,0.2-0.4,0.2-0.7c0-0.2-0.1-0.5-0.3-0.7c-0.2-0.2-0.4-0.3-0.6-0.4
	c-0.2-0.1-0.5,0-0.7,0.1c-8.3,1.1-17.6-7.5-20.2,4.6c-1.3,6.3-3.6,12.2-5.3,18.3c-0.7,2.5-2.8,7.9-0.4,10.2c1.8,1.8,4.6,0.9,6.7,0.2
	c4.9-1.1,9.7-2.5,14.4-4.2C162.6,69.7,165.1,68.4,165.4,64.5z M156.4,69.5c-3.2,1-6.5,1.4-9.7,2.6c-1.2,0.4-2.4,0.8-3.6,1.2
	c-3.7,1.1-3.2-3.2-2.7-5.6c1.5-7,4.6-13.5,6-20.6c1.4-7.9,10.7-3,16.7-3c0.6,4.3,0.7,8.6,0.4,12.9C163.1,63.3,163.5,67.4,156.4,69.5
	L156.4,69.5z"/>
<path class="st0" d="M184,47.9c0,0.7,0,1.5-0.2,2.3c-0.3-2.7-1.5-5.1-3.4-7c-0.1-0.1-0.3-0.2-0.5-0.3s-0.4,0-0.6,0
	c-4.7-1.2-11.5-1.7-12.2,4.3c-0.3,3.8-0.2,7.7,0.3,11.4c0.2,2.6-0.5,5.8,0.6,8.2c1.1,2.4,5.8,1.3,7.6,0.5c1.9-0.7,6.3-1.6,7.7-3.5
	c0.6-0.8,1-1.7,1.1-2.7c0.3,1.3,0.6,3.5,2.4,3.5c2.8-0.1,5.5-1,7.8-2.6c4.8-3.5,1.6-11.4-1.1-15.2c-0.1-0.2-0.2-0.3-0.4-0.4
	c0.2-0.5,0-1.3-0.7-1.2C188.8,45.5,185,42.3,184,47.9z M181.2,62.8c-1.7,0.8-3.4,1.4-5.2,1.9c-0.9,0.4-6.3,3.3-6-0.7
	c0-1,0-1.9,0-2.8c0-4-0.8-8-0.7-12c0.2-5.6,5.2-4.8,9.5-4.5C181.7,47.3,185,60.2,181.2,62.8z M191.2,61.2c-1.1,0.4-3.7,1.6-4,0
	c-0.2-1-0.4-2-0.5-3c-0.3-2.9-0.4-5.8-0.3-8.8c0-2,0-3,2.3-2.6c0.9,0.2,1.8,0.2,2.7,0.1c-0.1,0.2-0.2,0.3-0.2,0.5
	c0,0.2,0.1,0.4,0.2,0.5C194.1,51.9,197,58.8,191.2,61.2L191.2,61.2z"/>
<path class="st0" d="M128,68.5c3.7-7.6,6.4-15.6,8.2-23.9c0-0.1,0-0.3,0-0.4c0-0.1-0.1-0.3-0.1-0.4c-0.1-0.1-0.2-0.2-0.3-0.3
	s-0.2-0.1-0.3-0.2c-0.1,0-0.3,0-0.4,0c-0.1,0-0.3,0.1-0.4,0.1c-0.1,0.1-0.2,0.1-0.3,0.3c-0.1,0.1-0.1,0.2-0.2,0.3
	c-3,7.8-5.6,15.8-8.4,23.6c0,0.3,0,0.5,0.2,0.8c0.1,0.2,0.4,0.4,0.6,0.5c0.3,0.1,0.5,0.1,0.8,0C127.7,68.9,127.9,68.7,128,68.5z"/>
<path class="st0" d="M148.1,51.2c-1.4,3.2-2.6,6.5-3.4,10c-0.6,2.4-2,6.7-0.2,9c0.2,0.2,0.4,0.3,0.6,0.3c0.2,0,0.4,0,0.6-0.1
	c0.2-0.1,0.4-0.2,0.5-0.4c0.1-0.2,0.2-0.4,0.2-0.6c-0.3-6,1.8-11.6,3.3-17.4C149.9,50.9,148.5,50.3,148.1,51.2z"/>
<path class="st0" d="M151.1,62.8c-0.2,1.3-0.2,2.7,0,4c0.1,0.2,0.2,0.3,0.3,0.5s0.4,0.2,0.5,0.2c0.2,0,0.4-0.1,0.5-0.2
	c0.2-0.1,0.3-0.3,0.3-0.5c0.2-1.3,0.2-2.7,0-4c0-0.2-0.1-0.5-0.3-0.6c-0.2-0.2-0.4-0.3-0.6-0.3c-0.2,0-0.5,0.1-0.6,0.3
	C151.2,62.4,151.1,62.6,151.1,62.8z"/>
<path class="st0" d="M152.8,105.1c-6.3,3-12,9.5-19.3,9.7c-0.8,0-1.1,1.4-0.2,1.5c7.4,1,14.6-6,20.4-9.5c0.2-0.1,0.3-0.3,0.4-0.6
	c0-0.2,0-0.5-0.1-0.7s-0.3-0.4-0.5-0.4C153.3,104.9,153,105,152.8,105.1z"/>
<path class="st0" d="M179.9,91.2l7.3-3c1-0.4,0.7-2.1-0.5-1.7c-2.6,0.8-5.1,1.9-7.5,3.2C178.4,90.1,179,91.6,179.9,91.2z"/>
<path class="st0" d="M89.8,84.2c-6.4-0.2-12.8-1.2-19-3c-1.3-0.4-1.8,1.5-0.5,2c6.3,2.1,12.9,3.1,19.6,3c0.2-0.1,0.4-0.2,0.6-0.4
	c0.1-0.2,0.2-0.4,0.2-0.6c0-0.2-0.1-0.4-0.2-0.6C90.2,84.4,90,84.3,89.8,84.2z"/>
<path class="st0" d="M117.1,33.7c-2.5-0.2-5.1-0.6-7.6-1.1c-1-0.3-1.4,1.2-0.4,1.6c2.4,0.7,5,1.1,7.5,1.3
	C117.7,35.6,118.2,33.9,117.1,33.7z"/>
<path class="st0" d="M172.7,74.1c-4.1,1.6-7.9,5-12.4,5.1c-0.2,0-0.4,0.1-0.6,0.2c-0.1,0.1-0.2,0.3-0.2,0.5c0,0.2,0.1,0.4,0.2,0.5
	c0.1,0.1,0.3,0.2,0.6,0.2c4.6,0.5,9.2-3,13.1-5C174.3,75.3,173.7,73.7,172.7,74.1z"/>
<path class="st0" d="M185.2,70.4c-0.9,0.2-1.7,0.5-2.5,1c-0.1,0.1-0.2,0.3-0.3,0.5c0,0.2,0,0.4,0.1,0.6c0.1,0.2,0.3,0.3,0.4,0.4
	c0.2,0.1,0.4,0.1,0.6,0c0.7-0.3,1.4-0.6,2.1-0.7c0.2-0.1,0.3-0.2,0.4-0.4c0.1-0.2,0.1-0.4,0-0.6c-0.1-0.2-0.2-0.4-0.3-0.5
	C185.6,70.4,185.4,70.3,185.2,70.4z"/>
<path class="st0" d="M173.2,39.2c3.1,0.8,6.3,1.2,9.6,1.4c0.2,0,0.4-0.2,0.6-0.3c0.1-0.2,0.2-0.4,0.2-0.6c0-0.2-0.1-0.4-0.2-0.6
	c-0.1-0.2-0.3-0.3-0.6-0.3c-3.1-0.2-6.2-0.7-9.4-1.1C172.5,37.5,172.3,38.9,173.2,39.2z"/>
<path class="st0" d="M207.4,59.1c0.2,0.1,0.3,0.2,0.5,0.1c3,0,6.5-1.8,6-5.4c-0.2-1.8-1-3.5-2.1-4.8c-1.1-1.1-3-0.8-4.3-0.9
	c-0.1,0-0.3,0-0.4,0c-0.5-0.3-1.3,0-1.2,0.7c0.2,3,0,6.2,0.3,9.3c0,0.2,0,0.3,0.1,0.5c0.1,0.1,0.2,0.3,0.3,0.4
	c0.1,0.1,0.3,0.2,0.4,0.2C207.1,59.2,207.2,59.2,207.4,59.1z M210.2,50.2c1,0.4,1.3,2.5,1.6,3.4c0.7,2.6-1.7,3-3.7,3.6
	c0.1-2.5-0.1-5-0.5-7.5C208.5,49.8,209.3,50,210.2,50.2L210.2,50.2z"/>
<path class="st0" d="M217.4,57.9c0.9-0.2,1.7-0.6,2.3-1.3c0.6-0.7,1-1.5,1-2.4c0.2-1.6,0-4.1-2-4.8c-0.9-0.3-1.5,0.9-0.9,1.5
	c0.4,0.3,0.8,0.8,0.9,1.4c0.1,0.6,0.1,1.3,0,1.9c-0.1,0.6-0.3,1.1-0.8,1.5c-0.2,0.1-1,0.7-1.3,0.4c-0.3-0.2-0.5-1.8-0.6-2.5
	c0-1-0.1-2-0.3-3c-0.2-1-1.6-0.5-1.5,0.4C214.7,53,213.7,58.6,217.4,57.9z"/>
<path class="st0" d="M225.3,60.3c-5.9,2.5-12,4.3-18.3,5.3c-1,0-1,1.6,0,1.5c6.6-0.4,13-2.2,19-5.1c0.2-0.1,0.3-0.3,0.4-0.5
	c0.1-0.2,0.1-0.4,0-0.6c-0.1-0.2-0.2-0.4-0.4-0.5C225.8,60.3,225.6,60.3,225.3,60.3z"/>
<path class="st0" d="M73.2,74.8c5.7,1.8,11.5,2.8,17.5,3c5.7,0.5,10.9-2.8,16.2-4.5c0.3-0.1,0.5-0.2,0.6-0.5
	c0.1-0.2,0.2-0.5,0.1-0.8c-0.1-0.3-0.2-0.5-0.5-0.6c-0.2-0.1-0.5-0.2-0.8-0.1c-5.5,1.2-9.9,4.2-15.6,4.2c-5.8,0.1-11.5-0.9-16.9-2.7
	C72.5,72.4,72,74.4,73.2,74.8z"/>
<path class="st0" d="M77.1,69.5c1.2,2.2,5.5,1.8,7.6,2.1c1.2,0.1,1.4-1.8,0.3-2c-1.2-0.2-2.4-0.4-3.6-0.5c-1.1-0.2-2.3-0.4-3.4-0.7
	c-0.2,0-0.3,0-0.5,0c-0.1,0.1-0.3,0.1-0.4,0.3c-0.1,0.1-0.2,0.3-0.2,0.4C77,69.2,77,69.4,77.1,69.5z"/>
<path class="st0" d="M82.4,49.7c1.2-3.1,2.5-6.2,4-9.1c0.1-0.1,0.1-0.2,0.1-0.3c0-0.1,0-0.2,0-0.4c0-0.1-0.1-0.2-0.2-0.3
	c-0.1-0.1-0.2-0.2-0.3-0.2c-0.1-0.1-0.2-0.1-0.3-0.1c-0.1,0-0.2,0-0.4,0c-0.1,0-0.2,0.1-0.3,0.2c-0.1,0.1-0.2,0.2-0.2,0.3
	c-1.9,2.9-3.4,6.2-4.3,9.6c-0.1,0.3,0,0.5,0.1,0.8c0.1,0.2,0.3,0.4,0.6,0.5c0.3,0.1,0.5,0,0.8-0.1C82.1,50.1,82.3,49.9,82.4,49.7z"
	/>
<path class="st0" d="M90.4,50.7c0.7-1.8,1.3-3.7,1.7-5.6c0-0.9-1.4-1.1-1.6-0.2c-0.3,1.9-1.4,3.5-1.7,5.3c0,0.2,0.1,0.4,0.2,0.5
	c0.1,0.1,0.3,0.2,0.4,0.3c0.2,0.1,0.4,0,0.5,0C90.1,50.9,90.3,50.8,90.4,50.7z"/>
<path class="st0" d="M177.9,51c-0.1,1.2,0.1,2.4,0.7,3.4c0.1,0.2,0.3,0.3,0.6,0.4c0.2,0.1,0.5,0.1,0.7,0c0.2-0.1,0.4-0.3,0.5-0.5
	c0.1-0.2,0.1-0.5,0.1-0.7c-0.2-0.9-0.3-1.7-0.3-2.6c0-0.3-0.2-0.5-0.4-0.7c-0.2-0.2-0.5-0.3-0.7-0.3c-0.3,0-0.5,0.1-0.7,0.3
	S177.9,50.8,177.9,51z"/>
<path class="st0" d="M161.8,115.6c-4.3,2.2-8.5,4.8-12.4,7.7c-0.8,0.6,0,1.8,0.7,1.3c4.2-2.5,8.4-5,12.6-7.4
	c0.2-0.1,0.3-0.3,0.4-0.6c0-0.2,0-0.5-0.1-0.7c-0.1-0.2-0.3-0.4-0.5-0.4C162.3,115.5,162,115.5,161.8,115.6z"/>
<path class="st0" d="M191,96.5c-2.6,1.4-5.1,2.9-7.6,4.6c-1,0.7,0,2.3,0.9,1.6c2.5-1.6,5.1-3,7.6-4.6c0.2-0.1,0.3-0.3,0.3-0.6
	c0-0.2,0-0.4-0.1-0.6c-0.1-0.2-0.3-0.3-0.5-0.4C191.4,96.4,191.2,96.4,191,96.5z"/>
<path class="st0" d="M130.8,139.7c-0.7,1-1.3,2-1.9,3c-0.6,1,0.8,1.7,1.5,0.9c0.6-0.9,1.3-1.9,2-3
	C133.1,139.5,131.4,138.7,130.8,139.7z"/>
<path class="st0" d="M147.2,133.3c-2.9,3-5.6,6.1-8.1,9.3c-0.6,0.9,0.8,1.7,1.4,0.9c2.4-3.1,5-6.1,7.7-9
	C149,133.7,147.9,132.6,147.2,133.3z"/>
<path class="st0" d="M33,133.1c5.8-2.8,11.3-6,16.7-9.4c0.2-0.1,0.3-0.3,0.4-0.5c0.1-0.2,0-0.4-0.1-0.6c-0.1-0.2-0.3-0.3-0.5-0.4
	s-0.4,0-0.6,0.1c-5.6,3-11.3,6-17,9C30.8,131.9,31.8,133.7,33,133.1z"/>
<path class="st0" d="M170,119.1l-2,2c-0.7,0.7,0.4,1.9,1.2,1.2l2-2C171.9,119.6,170.7,118.3,170,119.1z"/>
<path class="st0" d="M44.6,119.2c1-0.3,2-0.8,2.8-1.5c0.9-0.8-0.5-2.2-1.3-1.3c-0.6,0.5-1.2,0.9-1.9,1.1
	C43.1,117.9,43.5,119.6,44.6,119.2z"/>
</svg>
